<svg xmlns="http://www.w3.org/2000/svg" width="48" height="64" viewBox="0 0 120 160" fill="#888888"><path d="M 0 0 L 0 160 L 120 160 L 120 40 L 80 0 L 0 0 z M 80 10 L 110 40 L 80 40 L 80 10 z M 100.66406 74.873047 C 102.57812 74.873047 104.40104 75.048828 106.13281 75.400391 C 107.86458 75.738932 109.79167 76.422526 111.91406 77.451172 L 111.91406 84.267578 L 111.07422 84.267578 C 110.70964 83.994141 110.17578 83.610026 109.47266 83.115234 C 108.76953 82.607422 108.09245 82.177734 107.44141 81.826172 C 106.6862 81.409505 105.80078 81.051432 104.78516 80.751953 C 103.78255 80.452474 102.71484 80.302734 101.58203 80.302734 C 100.25391 80.302734 99.049479 80.498047 97.96875 80.888672 C 96.888021 81.279297 95.917969 81.878255 95.058594 82.685547 C 94.238281 83.466797 93.58724 84.462891 93.105469 85.673828 C 92.636719 86.871745 92.402344 88.258464 92.402344 89.833984 C 92.402344 93.05013 93.255208 95.511068 94.960938 97.216797 C 96.666667 98.922526 99.186198 99.775391 102.51953 99.775391 C 102.80599 99.775391 103.11849 99.76888 103.45703 99.755859 C 103.80859 99.742839 104.1276 99.723307 104.41406 99.697266 L 104.41406 93.994141 L 98.613281 93.994141 L 98.613281 88.505859 L 112.03125 88.505859 L 112.03125 102.86133 C 110.72917 103.36914 109.00391 103.87695 106.85547 104.38477 C 104.70703 104.87956 102.5651 105.12695 100.42969 105.12695 C 95.481771 105.12695 91.608073 103.78581 88.808594 101.10352 C 86.009115 98.408203 84.609375 94.690755 84.609375 89.951172 C 84.609375 85.432943 86.022135 81.79362 88.847656 79.033203 C 91.673177 76.259766 95.611979 74.873047 100.66406 74.873047 z M 7.96875 75.439453 L 18.515625 75.439453 C 20.885417 75.439453 22.929688 75.641276 24.648438 76.044922 C 26.367188 76.435547 27.8125 76.995443 28.984375 77.724609 C 30.989583 78.948568 32.565104 80.602214 33.710938 82.685547 C 34.869792 84.755859 35.449219 87.197266 35.449219 90.009766 C 35.449219 92.718099 34.830729 95.146484 33.59375 97.294922 C 32.356771 99.430339 30.794271 101.07096 28.90625 102.2168 C 27.486979 103.07617 25.93099 103.67513 24.238281 104.01367 C 22.545573 104.35221 20.540365 104.52148 18.222656 104.52148 L 7.96875 104.52148 L 7.96875 75.439453 z M 38.75 75.439453 L 46.582031 75.439453 L 51.054688 95.458984 L 56.40625 75.439453 L 63.886719 75.439453 L 68.984375 95.458984 L 73.671875 75.439453 L 81.308594 75.439453 L 73.476562 104.52148 L 65.175781 104.52148 L 59.960938 85.576172 L 54.882812 104.52148 L 46.582031 104.52148 L 38.75 75.439453 z M 15.46875 80.869141 L 15.46875 99.072266 L 17.363281 99.072266 C 19.147135 99.072266 20.455729 98.994141 21.289062 98.837891 C 22.122396 98.66862 22.936198 98.369141 23.730469 97.939453 C 25.097656 97.158203 26.10026 96.116536 26.738281 94.814453 C 27.376302 93.499349 27.695312 91.878255 27.695312 89.951172 C 27.695312 88.037109 27.34375 86.402995 26.640625 85.048828 C 25.950521 83.681641 24.85026 82.613932 23.339844 81.845703 C 22.571615 81.468099 21.783854 81.214193 20.976562 81.083984 C 20.182292 80.940755 18.977865 80.869141 17.363281 80.869141 L 15.46875 80.869141 z"/></svg>