<svg xmlns="http://www.w3.org/2000/svg" width="48" height="64" viewBox="0 0 120 160" fill="#888888"><path d="M 0 0 L 0 160 L 120 160 L 120 40 L 80 0 L 0 0 z M 80 10 L 110 40 L 80 40 L 80 10 z M 19.267578 75.458984 L 31.845703 75.458984 C 33.564453 75.458984 35.042318 75.556641 36.279297 75.751953 C 37.516276 75.947266 38.67513 76.370443 39.755859 77.021484 C 40.849609 77.672526 41.715495 78.51888 42.353516 79.560547 C 43.004557 80.589193 43.330078 81.884766 43.330078 83.447266 C 43.330078 85.595703 42.828776 87.347005 41.826172 88.701172 C 40.836589 90.055339 39.417318 91.181641 37.568359 92.080078 L 47.275391 104.54102 L 38.115234 104.54102 L 30.185547 93.876953 L 26.728516 93.876953 L 26.728516 104.54102 L 19.267578 104.54102 L 19.267578 75.458984 z M 50.556641 75.458984 L 71.396484 75.458984 L 71.396484 81.083984 L 58.017578 81.083984 L 58.017578 86.494141 L 70.419922 86.494141 L 70.419922 92.119141 L 58.017578 92.119141 L 58.017578 104.54102 L 50.556641 104.54102 L 50.556641 75.458984 z M 84.072266 75.458984 L 92.705078 75.458984 L 103.44727 104.54102 L 95.693359 104.54102 L 93.681641 98.662109 L 82.900391 98.662109 L 80.888672 104.54102 L 73.330078 104.54102 L 84.072266 75.458984 z M 26.728516 80.810547 L 26.728516 88.642578 L 29.033203 88.642578 C 30.23112 88.642578 31.233724 88.583984 32.041016 88.466797 C 32.848307 88.349609 33.525391 88.082682 34.072266 87.666016 C 34.593099 87.26237 34.970703 86.819661 35.205078 86.337891 C 35.452474 85.843099 35.576172 85.185547 35.576172 84.365234 C 35.576172 83.636068 35.426432 83.011068 35.126953 82.490234 C 34.827474 81.969401 34.313151 81.559245 33.583984 81.259766 C 33.076172 81.051432 32.483724 80.927734 31.806641 80.888672 C 31.129557 80.836589 30.341797 80.810547 29.443359 80.810547 L 26.728516 80.810547 z M 88.291016 82.900391 L 84.716797 93.330078 L 91.865234 93.330078 L 88.291016 82.900391 z"/></svg>