<svg xmlns="http://www.w3.org/2000/svg" width="48" height="64" viewBox="0 0 120 160" fill="#888888"><path d="M 0 0 L 0 160 L 120 160 L 120 40 L 80 0 L 0 0 z M 80 10 L 110 40 L 80 40 L 80 10 z M 30.673828 74.912109 C 32.587891 74.912109 34.475911 75.100911 36.337891 75.478516 C 38.212891 75.843099 39.833984 76.305339 41.201172 76.865234 L 41.201172 83.564453 L 40.400391 83.564453 C 39.228516 82.626953 37.789714 81.845703 36.083984 81.220703 C 34.391276 80.582682 32.659505 80.263672 30.888672 80.263672 C 30.263672 80.263672 29.638672 80.309245 29.013672 80.400391 C 28.401693 80.478516 27.809245 80.634766 27.236328 80.869141 C 26.728516 81.064453 26.292318 81.363932 25.927734 81.767578 C 25.563151 82.158203 25.380859 82.607422 25.380859 83.115234 C 25.380859 83.883464 25.673828 84.475911 26.259766 84.892578 C 26.845703 85.296224 27.952474 85.667318 29.580078 86.005859 C 30.647786 86.227214 31.669922 86.442057 32.646484 86.650391 C 33.636068 86.858724 34.697266 87.145182 35.830078 87.509766 C 38.056641 88.238932 39.697266 89.235026 40.751953 90.498047 C 41.819661 91.748047 42.353516 93.375651 42.353516 95.380859 C 42.353516 98.245443 41.136068 100.57617 38.701172 102.37305 C 36.279297 104.1569 32.985026 105.04883 28.818359 105.04883 C 26.409505 105.04883 24.306641 104.84049 22.509766 104.42383 C 20.725911 103.99414 19.052734 103.45378 17.490234 102.80273 L 17.490234 95.830078 L 18.310547 95.830078 C 19.860026 97.067057 21.591797 98.017578 23.505859 98.681641 C 25.432943 99.345703 27.281901 99.677734 29.052734 99.677734 C 29.508464 99.677734 30.107422 99.638672 30.849609 99.560547 C 31.591797 99.482422 32.197266 99.352214 32.666016 99.169922 C 33.238932 98.935547 33.707682 98.642578 34.072266 98.291016 C 34.44987 97.939453 34.638672 97.41862 34.638672 96.728516 C 34.638672 96.090495 34.365234 95.54362 33.818359 95.087891 C 33.284505 94.619141 32.496745 94.261068 31.455078 94.013672 C 30.361328 93.753255 29.202474 93.51237 27.978516 93.291016 C 26.767578 93.056641 25.628255 92.763672 24.560547 92.412109 C 22.11263 91.617839 20.348307 90.54362 19.267578 89.189453 C 18.19987 87.822266 17.666016 86.129557 17.666016 84.111328 C 17.666016 81.402995 18.876953 79.195964 21.298828 77.490234 C 23.733724 75.771484 26.858724 74.912109 30.673828 74.912109 z M 47.490234 75.439453 L 54.990234 75.439453 L 54.990234 88.603516 L 65.380859 75.439453 L 74.072266 75.439453 L 62.705078 88.896484 L 74.638672 104.52148 L 65.439453 104.52148 L 56.748047 92.880859 L 54.990234 95.009766 L 54.990234 104.52148 L 47.490234 104.52148 L 47.490234 75.439453 z M 78.330078 75.439453 L 90.673828 75.439453 C 92.522786 75.439453 94.078776 75.602214 95.341797 75.927734 C 96.617839 76.240234 97.744141 76.715495 98.720703 77.353516 C 99.892578 78.121745 100.78451 79.104818 101.39648 80.302734 C 102.02148 81.500651 102.33398 82.939453 102.33398 84.619141 C 102.33398 85.921224 102.10612 87.197266 101.65039 88.447266 C 101.19466 89.684245 100.54362 90.725911 99.697266 91.572266 C 98.538411 92.718099 97.242839 93.583984 95.810547 94.169922 C 94.391276 94.755859 92.620443 95.048828 90.498047 95.048828 L 85.830078 95.048828 L 85.830078 104.52148 L 78.330078 104.52148 L 78.330078 75.439453 z M 85.830078 80.869141 L 85.830078 89.580078 L 87.978516 89.580078 C 89.254557 89.580078 90.302734 89.501953 91.123047 89.345703 C 91.95638 89.189453 92.652995 88.876953 93.212891 88.408203 C 93.694661 87.991536 94.039714 87.496745 94.248047 86.923828 C 94.469401 86.337891 94.580078 85.628255 94.580078 84.794922 C 94.580078 83.974609 94.358724 83.271484 93.916016 82.685547 C 93.473307 82.086589 92.958984 81.669922 92.373047 81.435547 C 91.591797 81.123047 90.830078 80.953776 90.087891 80.927734 C 89.345703 80.888672 88.35612 80.869141 87.119141 80.869141 L 85.830078 80.869141 z"/></svg>